<?xml version="1.0" encoding="utf-8"?>
<!-- Generator: Adobe Illustrator 17.1.0, SVG Export Plug-In . SVG Version: 6.00 Build 0)  -->
<!DOCTYPE svg PUBLIC "-//W3C//DTD SVG 1.1//EN" "http://www.w3.org/Graphics/SVG/1.1/DTD/svg11.dtd">
<svg version="1.1" id="Layer_1" xmlns="http://www.w3.org/2000/svg" xmlns:xlink="http://www.w3.org/1999/xlink" x="0px" y="0px"
	 width="827.6px" height="224.3px" viewBox="0 0 827.6 224.3" enable-background="new 0 0 827.6 224.3" xml:space="preserve">
<g>
	<g>
		<path d="M333,2.3v39.4h-2.5c-4.2-17.2-13-33.5-35-33.5h-10.3v110.7c0,13.8,3.1,19.5,8.6,22.4v2.3h-41.7v-2.3
			c5.7-2.9,8.6-8.6,8.6-22.4V8.2h-9.4c-22.2,0-30.8,16.3-35,33.5h-2.7V2.3H333z"/>
		<path d="M486.6,27v91.8c0,13.8,3.1,19.5,8.6,22.4v2.3h-41.7v-2.3c5.4-2.7,8.6-8.6,8.6-22.4v-43h-75.4v43c0,13.8,3.1,19.5,8.6,22.4
			v2.3h-41.7v-2.3c5.4-2.7,8.6-8.6,8.6-22.4V27c0-14-3.1-19.7-8.6-22.4V2.3h41.7v2.3c-5.2,2.7-8.6,8.4-8.6,22.4v42.8H462V27
			c0-14-3.1-19.7-8.6-22.4V2.3h41.7v2.3C489.9,7.3,486.6,13,486.6,27z"/>
		<path d="M586.7,0c44,0,71.5,31.4,71.5,72.1c0,44.2-29.1,73.8-71.5,73.8c-43.6,0-71.3-27.9-71.3-73.8C515.5,31.9,543.6,0,586.7,0z
			 M586.7,5.9c-28.5,0-44,30.6-44,66.2c0,38.4,16.1,67.9,44,67.9c28.9,0,44.2-29.3,44.2-67.9C631,36.5,615,5.9,586.7,5.9z"/>
		<path d="M742.8,164.4h-4.4L674.6,27.4C663.2,4.6,656.5,5.3,656.5,5.3V4.4h34.3l58.6,124.6c0,0,5.4-14.5,8.7-20.4
			c0.3-0.6,1.1-0.9,1.7-0.6l1,1.5L742.8,164.4z"/>
		<path d="M0,4.3c32.8,0,64.9,0,97.2,0c0,10.5,0,21,0,31.4c-1.8,0.8-2.4-0.2-3-1.6c-4.6-10.9-12-19-23.8-22.2
			c-2.8-0.8-5.8-1.5-8.7-1.5c-9.4-0.2-18.8-0.1-28.4-0.1c0,20.9,0,42,0,63.1c0.4,0.1,0.8,0.2,1.2,0.2c6-0.4,11.9-0.5,17.9-1.2
			c10.5-1.2,16.9-7.6,20.5-17.2c0.7-1.9,0.8-1.9,2.8-2c0,14.8,0,29.5,0,45.1c-1.2-1-2.1-1.4-2.5-2.1c-1.1-1.9-2-4.1-3.1-6
			c-3.7-6.3-9.2-10.1-16.4-11c-6.7-0.8-13.4-1.2-20.3-1.7c-0.1,0.7-0.3,1.2-0.3,1.7c0,15,0,30,0.2,45c0,2.7,0.7,5.5,1.4,8.2
			c1,4.1,3.5,7,7.2,9c0.8,0.4,1.3,1.4,2.4,2.7c-15.2,0-29.4,0-44.2,0c0.4-1,0.6-2.1,1.2-2.4c4.6-2.9,6.2-7.5,7-12.5
			c0.4-2.8,0.6-5.7,0.6-8.5c0-30.9,0.1-61.9,0-92.8c0-3.8-0.5-7.6-1.2-11.3C6.9,12.4,5,9,1.5,6.8C0.9,6.4,0.6,5.4,0,4.3z"/>
		<path d="M794.5,2.3h33.1v2.3C822,7.5,819,13.2,819,27v91.8c0,13.8,3.1,19.5,8.6,22.4v2.3h-41.7v-2.3c5.7-2.9,8.6-8.6,8.6-22.4V2.3
			z"/>
		<path d="M222.5,141.3v3.1h-50v-3.1c10-2.5,10.5-12.2,3.4-29.6l-32.2-78.3c-5.7,7.1-9.8,16.9-13.8,23.7c-0.4,0.6-1.1,0.9-1.7,0.6
			l-1.3-0.4l16-35.9h0l9.2-20h3.1l46.7,111.8C208.8,129.7,212.5,136,222.5,141.3z"/>
	</g>
	<g>
		<g>
			<path fill="#808285" d="M1,198.4h9.1c7.2,0,12,4.9,12,12.5c0,7.6-4.7,13-12.1,13H1V198.4z M4.4,221.1h5.4c6,0,8.8-4.3,8.8-10.1
				c0-5-2.6-9.7-8.8-9.7H4.4V221.1z"/>
		</g>
		<g>
			<path fill="#808285" d="M84.2,212H71.5v9h13.9l-0.4,2.9H68.2v-25.5h16.6v2.9H71.5v7.8h12.7V212z"/>
		</g>
		<g>
			<path fill="#808285" d="M146.9,212h-12.7v9h13.9l-0.4,2.9h-16.8v-25.5h16.6v2.9h-13.3v7.8h12.7V212z"/>
		</g>
		<g>
			<path fill="#808285" d="M193.5,198.4h9.7c5,0,8.4,2.8,8.4,7.5c0,5-3.6,7.6-8.6,7.6h-6.1v10.5h-3.4V198.4z M196.9,210.6h5.9
				c3.5,0,5.2-1.7,5.2-4.7c0-3.1-2.1-4.7-5.1-4.7h-6V210.6z"/>
		</g>
		<g>
			<path fill="#808285" d="M257.1,198.4h3.4V221h13.3l-0.5,2.9h-16.2V198.4z"/>
		</g>
		<g>
			<path fill="#808285" d="M320.2,223.9v-9.4c0-0.3,0-0.5-0.2-0.7l-9-15.5h3.9c2.3,4.1,6,10.8,7.2,13c1.1-2.2,4.9-8.8,7.3-13h3.6
				l-9.3,15.6c-0.1,0.1-0.1,0.3-0.1,0.7v9.3H320.2z"/>
		</g>
		<g>
			<path fill="#808285" d="M447.3,216.7c-1.1,4.3-4.4,7.6-10.2,7.6c-7.6,0-11.5-5.8-11.5-13c0-6.9,3.9-13.2,11.6-13.2
				c6,0,9.3,3.5,10.1,7.7h-3.4c-0.9-2.8-2.8-4.9-6.8-4.9c-5.7,0-7.9,5.1-7.9,10.3c0,5,2.2,10.3,8.1,10.3c3.9,0,5.7-2.3,6.6-4.7
				H447.3z"/>
		</g>
		<g>
			<path fill="#808285" d="M496.1,198.4v15.4c0,6,3.3,7.7,6.6,7.7c3.8,0,6.5-1.8,6.5-7.7v-15.4h3.4v15.2c0,8.3-4.6,10.7-10,10.7
				c-5.3,0-9.9-2.6-9.9-10.4v-15.5H496.1z"/>
		</g>
		<g>
			<path fill="#808285" d="M563.4,212.7v11.2H560v-25.5h10c5.2,0,8,2.9,8,6.8c0,3.3-1.9,5.4-4.4,6c2.1,0.6,3.9,2.1,3.9,6.5v1.1
				c0,1.8-0.1,4,0.4,5.1h-3.3c-0.5-1.1-0.4-3.1-0.4-5.5v-0.5c0-3.6-1-5.2-5.6-5.2H563.4z M563.4,209.8h5.5c3.9,0,5.6-1.5,5.6-4.3
				c0-2.7-1.8-4.3-5.2-4.3h-5.9V209.8z"/>
		</g>
		<g>
			<path fill="#808285" d="M627.9,198.4v25.5h-3.4v-25.5H627.9z"/>
		</g>
		<g>
			<path fill="#808285" d="M697.6,211c0,7-3.9,13.3-12,13.3c-7.5,0-11.7-5.8-11.7-13.1c0-7.3,4.3-13.1,12-13.1
				C693.1,198,697.6,203.4,697.6,211z M677.5,211c0,5.5,2.8,10.4,8.3,10.4c5.9,0,8.3-4.9,8.3-10.3c0-5.5-2.7-10.2-8.3-10.2
				C680,200.9,677.5,205.6,677.5,211z"/>
		</g>
		<g>
			<path fill="#808285" d="M747,198.4v15.4c0,6,3.3,7.7,6.6,7.7c3.8,0,6.5-1.8,6.5-7.7v-15.4h3.4v15.2c0,8.3-4.6,10.7-10,10.7
				c-5.3,0-9.9-2.6-9.9-10.4v-15.5H747z"/>
		</g>
		<g>
			<path fill="#808285" d="M811.8,216.8c0.7,3.1,2.8,4.7,6.5,4.7c4,0,5.5-1.9,5.5-4.3c0-2.6-1.2-4-6.3-5.2c-6-1.5-8.1-3.5-8.1-7.1
				c0-3.8,2.8-6.9,8.5-6.9c6.1,0,8.6,3.5,9,6.9h-3.4c-0.5-2.2-1.9-4.1-5.6-4.1c-3.1,0-4.8,1.4-4.8,3.8c0,2.4,1.4,3.3,5.9,4.4
				c7.3,1.8,8.5,4.6,8.5,7.9c0,4.1-3,7.3-9.3,7.3c-6.4,0-9.2-3.5-9.7-7.5H811.8z"/>
		</g>
	</g>
</g>
</svg>
