<?xml version="1.0" encoding="utf-8"?>
<!-- Generator: Adobe Illustrator 17.1.0, SVG Export Plug-In . SVG Version: 6.00 Build 0)  -->
<!DOCTYPE svg PUBLIC "-//W3C//DTD SVG 1.1//EN" "http://www.w3.org/Graphics/SVG/1.1/DTD/svg11.dtd">
<svg version="1.1" id="Layer_1" xmlns="http://www.w3.org/2000/svg" xmlns:xlink="http://www.w3.org/1999/xlink" x="0px" y="0px"
	 width="1022.7px" height="202.6px" viewBox="0 0 1022.7 202.6" enable-background="new 0 0 1022.7 202.6" xml:space="preserve">
<path fill="#FFFFFF" d="M981.7,2.8h40.9v2.8c-7,3.6-10.6,10.6-10.6,27.7v113.4c0,17.1,3.9,24.1,10.6,27.7v2.8h-51.5v-2.8
	c7-3.6,10.6-10.6,10.6-27.7V2.8z"/>
<path fill="#FFFFFF" d="M917.8,202.6h-5.4l-78.9-169C819.4,5.4,810.9,6.6,810.9,6.6V4.6h42.6l72.4,154.3c0,0,6.7-17.8,10.8-25.1
	c0.4-0.8,1.3-1,2.1-0.6l1.3,1.6L917.8,202.6z"/>
<path fill="#FFFFFF" d="M725,0c54.4,0,88.3,38.8,88.3,89.1c0,54.6-36,91.2-88.3,91.2c-53.9,0-88.1-34.4-88.1-91.2
	C637,39.4,671.7,0,725,0z M725,7.3c-35.2,0-54.4,37.8-54.4,81.8c0,47.4,19.9,83.9,54.4,83.9c35.7,0,54.6-36.3,54.6-83.9
	C779.7,45.1,760,7.3,725,7.3z"/>
<path fill="#FFFFFF" d="M601.2,33.4v113.4c0,17.1,3.9,24.1,10.6,27.7v2.8h-51.5v-2.8c6.7-3.4,10.6-10.6,10.6-27.7V93.8h-93.2v53.1
	c0,17.1,3.9,24.1,10.6,27.7v2.8h-51.5v-2.8c6.7-3.4,10.6-10.6,10.6-27.7V33.4c0-17.4-3.9-24.3-10.6-27.7V2.8h51.5v2.8
	c-6.5,3.4-10.6,10.4-10.6,27.7v52.8h93.2V33.4c0-17.4-3.9-24.3-10.6-27.7V2.8h51.5v2.8C605.4,9.1,601.2,16.1,601.2,33.4z"/>
<path fill="#FFFFFF" d="M411.5,2.8v48.7h-3.1c-5.2-21.2-16.1-41.4-43.3-41.4h-12.7v136.7c0,17.1,3.9,24.1,10.6,27.7v2.8h-51.5v-2.8
	c7-3.6,10.6-10.6,10.6-27.7V10.1h-11.7c-27.5,0-38.1,20.2-43.3,41.4h-3.4V2.8H411.5z"/>
<path fill="#FFFFFF" d="M274.9,174.6v3.1h-62v-3.1c12-3.1,13.1-15,4.3-36.5l-39.7-96.8c-7.1,8.7-12.1,20.9-17.1,29.3
	c-0.5,0.8-1.3,1.1-2.1,0.7l-1.6-1.4l19.8-45.2h0l11.3-24h3.9l57.8,138.6C258.1,159.7,261.9,168.1,274.9,174.6z"/>
<path fill="#FFFFFF" d="M0,5.3c40.5,0,80.2,0,120.1,0c0,13,0,25.9,0,38.8c-2.2,1-3-0.2-3.7-2c-5.7-13.5-14.8-23.5-29.4-27.4
	c-3.5-0.9-7.1-1.8-10.7-1.9c-11.6-0.2-23.3-0.1-35.1-0.1c0,25.9,0,51.8,0,78c0.5,0.1,1,0.3,1.5,0.3c7.4-0.5,14.8-0.7,22.1-1.5
	c13-1.5,20.9-9.4,25.4-21.2c0.9-2.4,1-2.4,3.5-2.5c0,18.2,0,36.5,0,55.8c-1.4-1.2-2.6-1.7-3.1-2.6c-1.4-2.4-2.4-5-3.8-7.4
	c-4.6-7.8-11.4-12.5-20.3-13.7c-8.3-1-16.6-1.4-25-2.1c-0.2,0.9-0.4,1.5-0.4,2.1c0,18.5,0,37,0.2,55.6c0,3.4,0.9,6.8,1.7,10.1
	c1.3,5,4.3,8.7,9,11.2c1,0.5,1.6,1.7,2.9,3.3c-18.8,0-36.4,0-54.6,0c0.5-1.2,0.7-2.6,1.4-3c5.7-3.6,7.7-9.3,8.6-15.4
	c0.5-3.5,0.8-7,0.8-10.5c0.1-38.2,0.1-76.4,0-114.6c0-4.7-0.6-9.4-1.5-14c-0.9-4.8-3.3-9-7.7-11.8C1.1,7.9,0.8,6.7,0,5.3z"/>
</svg>
